HIERARCHY
ROOT hip
{
  OFFSET 0 0 0
  CHANNELS 6 Xposition Yposition Zposition Zrotation Yrotation Xrotation
  JOINT abdomen
  {
    OFFSET 0 20.6881 -0.73152
    CHANNELS 3 Zrotation Xrotation Yrotation
    JOINT chest
    {
      OFFSET 0 11.7043 -0.48768
      CHANNELS 3 Zrotation Xrotation Yrotation
      JOINT neck
      {
        OFFSET 0 22.1894 -2.19456
        CHANNELS 3 Zrotation Xrotation Yrotation
        JOINT head
        {
          OFFSET -0.24384 7.07133 1.2192
          CHANNELS 3 Zrotation Xrotation Yrotation
          JOINT leftEye
          {
            OFFSET 4.14528 8.04674 8.04672
            CHANNELS 3 Zrotation Xrotation Yrotation
            End Site
            {
              OFFSET 1 0 0
            }
          }
          JOINT rightEye
          {
            OFFSET -3.6576 8.04674 8.04672
            CHANNELS 3 Zrotation Xrotation Yrotation
            End Site
            {
              OFFSET 1 0 0
            }
          }
        }
      }
      JOINT rCollar
      {
        OFFSET -2.68224 19.2634 -4.8768
        CHANNELS 3 Zrotation Xrotation Yrotation
        JOINT rShldr
        {
          OFFSET -8.77824 -1.95073 1.46304
          CHANNELS 3 Zrotation Xrotation Yrotation
          JOINT rForeArm
          {
            OFFSET -28.1742 -1.7115 0.48768
            CHANNELS 3 Zrotation Xrotation Yrotation
            JOINT rHand
            {
              OFFSET -22.5879 0.773209 7.07136
              CHANNELS 3 Zrotation Xrotation Yrotation
              JOINT rThumb1
              {
                OFFSET -1.2192 -0.487915 3.41376
                CHANNELS 3 Zrotation Xrotation Yrotation
                JOINT rThumb2
                {
                  OFFSET -3.37035 -0.52449 3.41376
                  CHANNELS 3 Zrotation Xrotation Yrotation
                  End Site
                  {
                    OFFSET -1.78271 -1.18214 1.43049
                  }
                }
              }
              JOINT rIndex1
              {
                OFFSET -7.75947 0.938293 5.60832
                CHANNELS 3 Zrotation Xrotation Yrotation
                JOINT rIndex2
                {
                  OFFSET -2.54057 -0.884171 1.56538
                  CHANNELS 3 Zrotation Xrotation Yrotation
                  End Site
                  {
                    OFFSET -1.62519 -0.234802 1.16502
                  }
                }
              }
              JOINT rMid1
              {
                OFFSET -8.24714 1.18213 3.41376
                CHANNELS 3 Zrotation Xrotation Yrotation
                JOINT rMid2
                {
                  OFFSET -3.10165 -0.590103 1.0647
                  CHANNELS 3 Zrotation Xrotation Yrotation
                  End Site
                  {
                    OFFSET -2.48547 -0.328903 0.83742
                  }
                }
              }
              JOINT rRing1
              {
                OFFSET -8.82822 0.546677 1.51678
                CHANNELS 3 Zrotation Xrotation Yrotation
                JOINT rRing2
                {
                  OFFSET -2.60934 -0.819778 -0.0198488
                  CHANNELS 3 Zrotation Xrotation Yrotation
                  End Site
                  {
                    OFFSET -2.33842 -0.294052 0.168128
                  }
                }
              }
              JOINT rPinky1
              {
                OFFSET -8.27202 -0.0477905 -0.4584
                CHANNELS 3 Zrotation Xrotation Yrotation
                JOINT rPinky2
                {
                  OFFSET -1.82734 -0.647385 -0.700984
                  CHANNELS 3 Zrotation Xrotation Yrotation
                  End Site
                  {
                    OFFSET -1.69225 -0.51767 -0.607171
                  }
                }
              }
            }
          }
        }
      }
      JOINT lCollar
      {
        OFFSET 2.68224 19.2634 -4.8768
        CHANNELS 3 Zrotation Xrotation Yrotation
        JOINT lShldr
        {
          OFFSET 8.77824 -1.95073 1.46304
          CHANNELS 3 Zrotation Xrotation Yrotation
          JOINT lForeArm
          {
            OFFSET 28.1742 -1.7115 0.48768
            CHANNELS 3 Zrotation Xrotation Yrotation
            JOINT lHand
            {
              OFFSET 22.5879 0.773209 7.07136
              CHANNELS 3 Zrotation Xrotation Yrotation
              JOINT lThumb1
              {
                OFFSET 1.2192 -0.487915 3.41376
                CHANNELS 3 Zrotation Xrotation Yrotation
                JOINT lThumb2
                {
                  OFFSET 3.37035 -0.52449 3.41376
                  CHANNELS 3 Zrotation Xrotation Yrotation
                  End Site
                  {
                    OFFSET 1.78271 -1.18214 1.43049
                  }
                }
              }
              JOINT lIndex1
              {
                OFFSET 7.75947 0.938293 5.60832
                CHANNELS 3 Zrotation Xrotation Yrotation
                JOINT lIndex2
                {
                  OFFSET 2.54057 -0.884171 1.56538
                  CHANNELS 3 Zrotation Xrotation Yrotation
                  End Site
                  {
                    OFFSET 1.62519 -0.234802 1.16502
                  }
                }
              }
              JOINT lMid1
              {
                OFFSET 8.24714 1.18213 3.41376
                CHANNELS 3 Zrotation Xrotation Yrotation
                JOINT lMid2
                {
                  OFFSET 3.10165 -0.590103 1.0647
                  CHANNELS 3 Zrotation Xrotation Yrotation
                  End Site
                  {
                    OFFSET 2.48547 -0.328903 0.83742
                  }
                }
              }
              JOINT lRing1
              {
                OFFSET 8.82822 0.546677 1.51678
                CHANNELS 3 Zrotation Xrotation Yrotation
                JOINT lRing2
                {
                  OFFSET 2.60934 -0.819778 -0.0198488
                  CHANNELS 3 Zrotation Xrotation Yrotation
                  End Site
                  {
                    OFFSET 2.33842 -0.294052 0.168128
                  }
                }
              }
              JOINT lPinky1
              {
                OFFSET 8.27202 -0.0477905 -0.4584
                CHANNELS 3 Zrotation Xrotation Yrotation
                JOINT lPinky2
                {
                  OFFSET 1.82734 -0.647385 -0.700984
                  CHANNELS 3 Zrotation Xrotation Yrotation
                  End Site
                  {
                    OFFSET 1.69225 -0.51767 -0.607171
                  }
                }
              }
            }
          }
        }
      }
    }
  }
  JOINT rButtock
  {
    OFFSET -8.77824 4.35084 1.2192
    CHANNELS 3 Zrotation Xrotation Yrotation
    JOINT rThigh
    {
      OFFSET 0 -1.70687 -2.19456
      CHANNELS 3 Zrotation Xrotation Yrotation
      JOINT rShin
      {
        OFFSET 0 -36.8199 0.73152
        CHANNELS 3 Zrotation Xrotation Yrotation
        JOINT rFoot
        {
          OFFSET 0.73152 -45.1104 -5.12064
          CHANNELS 3 Zrotation Xrotation Yrotation
          End Site
          {
            OFFSET -1.1221 -3.69964 12.103
          }
        }
      }
    }
  }
  JOINT lButtock
  {
    OFFSET 8.77824 4.35084 1.2192
    CHANNELS 3 Zrotation Xrotation Yrotation
    JOINT lThigh
    {
      OFFSET 0 -1.70687 -2.19456
      CHANNELS 3 Zrotation Xrotation Yrotation
      JOINT lShin
      {
        OFFSET 0 -36.8199 0.73152
        CHANNELS 3 Zrotation Xrotation Yrotation
        JOINT lFoot
        {
          OFFSET -0.73152 -45.1104 -5.12064
          CHANNELS 3 Zrotation Xrotation Yrotation
          End Site
          {
            OFFSET 1.1221 -3.69964 12.103
          }
        }
      }
    }
  }
}
MOTION
Frames:	4
Frame Time:	0.03333
-1.052690576761961 23.935584723949432 0.22893217392265797 -1.667466248349672 0.1016321943234782 0.6386910960095982 0.024833180439991203 5.029713311870132 0.8043120843250061 1.7825681693559037 -1.696919518154648 1.003797684153866 -1.6257384882759485 4.672932404158992 0.37836969493452205 1.8790055312380178 -7.475262971080021 -0.7604914582400555 -0.3881021808932613 1.1145816449441805 -0.703119950285211 -0.6035354720213079 0.5603793486374054 -0.42790187994991075 -0.1565777244728185 1.054545029191709 0.31138298817559223 11.238796241500012 7.683471042644104 5.0974085973945975 -6.678759607245337 -9.10994153664928 16.3162649553864 -1.667462406368264 -2.5984442975542703 -0.4680296948909852 -0.11268884985702063 0.8956114364039781 0.05922654464473752 0.7536984615845075 -0.010892284096319163 0.3414013227322545 0.8565917396144588 -0.640261612631878 -0.5068760222694625 2.8929614142349855 0.5006356839673038 0.5734328539975047 -0.4070842370920788 -0.9305528699287651 0.42333192310621687 1.4647584000581526 0.8081198614264353 -0.21313901457758333 0.6696335071361955 -0.4095560452001094 -0.6087962117860986 2.578930873982367 -0.21933322242241798 -1.073225383128282 0.16920506338130603 -0.2441071189548476 0.4421150500454577 -0.550059466410045 0.049420767554552845 0.07500791016546354 -0.08234960313107356 1.0513323856825698 0.2941754471396558 -13.942012652714515 7.789009418151848 -5.2051795909872896 6.496671886614674 -8.899645988520112 -14.936421601523964 0.5316594703945595 -2.6060936825378613 2.214123640222816 1.0490942180689213 0.11137501227735842 -0.9380165591442965 -0.582834235864057 0.7778749833688254 0.6215950791562033 -0.4312984849993905 0.16501488906784864 -0.4256778262818518 -2.4724055361395556 1.986368847914625 0.28350260955084977 0.46850583378132915 0.8523096912525369 -1.3279018996586072 0.17176605081473023 -0.8152305152392417 -0.46591009509245984 -0.07151568246760363 1.0806030546489538 0.7108286191763639 -1.5167067911728598 -0.3164006959358922 0.7546871848277198 1.5204537902628465 -0.45929425646850913 -0.4734304001729084 -0.2809074311509358 0.5697593328019485 -0.45817543946594935 -1.2200930198603623 0.9073247839437268 -1.190763013625564 -7.707376704739149 -10.21604627650324 -7.071204347707698 -1.8776783401049197 15.179246779348965 1.2282976778791344 -0.11265823406767457 -2.3986010732893366 -2.356386021907015 1.1614188134038967 -1.0622028451900567 -0.0981945547781255 8.182696399269506 -9.631754328859914 8.028971039167322 0.16012225914672454 14.677273979129925 -0.48235041378553345 2.757421859684783 -1.7194160268465544 2.9511262379897563
-1.8203621730208397 27.07982063293457 0.46134674921631813 -1.9239509507410522 0.1351656016931442 0.5336148254878873 -0.26902290199511364 5.428298392396335 0.9027278531888967 1.9393865379350461 -2.17974430992238 1.175811836254112 -1.4560744548587161 5.35148053546167 0.19591394450147231 2.1198535827417113 -8.155974991689124 -1.1410448927182775 -0.5439013038213381 0.972448396523977 -0.38879176319516817 -0.4358645198203969 0.3755423167832541 -0.5982942089678221 -0.2780811202167257 0.796943430788473 0.09187399510375222 12.786180720608277 8.298216242475577 5.5952026025020585 -7.341015602943419 -10.0946200272124 18.12356374562304 -1.8387733691491155 -2.955593395150356 -0.4317786793145541 -0.3478678310093905 0.8464849272726911 -0.1376312999835188 0.7023807423901158 -0.16571238211619652 0.10924956946544154 1.1036223929774833 -0.8416181506847926 -0.6276555380232673 3.330883048295173 0.8419618479382618 0.4552106037576349 -0.5970374007996869 -1.198357757095795 0.4615358925375956 1.4918075499969898 0.5621600536592217 -0.02543650492320018 0.6419319140490634 -0.40869029204238383 -0.6497409547045035 2.9733311829814677 0.036937449588017396 -1.0108220001066954 0.2444916105803517 -0.4146905065065343 0.15769866256928072 -0.7284521614214363 -0.16636270417058902 0.15118342249324226 -0.27725685512212267 1.0190730820674823 0.2167298531315853 -15.33926786631861 8.644218257902791 -6.107804884616931 7.163113080726682 -9.96065952702094 -16.865278975966614 0.7079566847129322 -3.1682101403802716 2.4201586444137777 0.8726243280305944 0.03720299987242809 -1.366841235003673 -0.7678238263966228 0.5719327203401877 0.5865875315346848 -0.4635942340770024 0.19272401937545156 -0.2318612301032494 -2.740346600203163 2.312055319429282 0.32576304433855496 0.29531427446204966 0.910135940395716 -1.3847446549221574 0.1285981080019125 -0.48363886493943287 -0.10229200793957863 -0.14270386270059043 1.0293052390526902 0.4980901578410047 -1.6665216545318005 -0.012622189586183564 0.676373996712499 1.742365996066326 -0.28793577584815827 -0.3163843675149076 -0.4853945970820964 0.294502549167876 -0.3882321946113296 -1.1641004097050671 0.9728013252049963 -1.2982259016536652 -8.737720986319328 -11.535993140212899 -7.805896207101059 -2.2273157237178727 16.994856202258216 1.1501221074035186 -0.2743994081302508 -2.7003088850621944 -2.8452414438250453 1.156351880256805 -0.7961463263679913 -0.23141249201086486 9.31897520732929 -10.501663443252017 8.86372260858043 0.07116881024338748 16.60740347630549 -0.7117726260248536 2.971620434037791 -2.058683048865312 3.359234096322838
-2.4017837829887867 29.22322154045105 0.7089885417371988 -2.133231788891651 0.12507775913457916 0.5454423652528222 -0.46018783731101726 5.6435966272057145 0.9864469759496239 2.0067198234335013 -2.477116659119572 1.308173965458083 -1.4063697808863582 5.818116925122826 0.06660122795764722 2.2498374187323433 -8.591619824878169 -1.386973004138874 -0.6789417209536006 0.8999354797571251 -0.1581251758664363 -0.3662491507263642 0.2549854758685623 -0.7496631538063523 -0.3847462101332579 0.6396185076328389 -0.03602780712878921 13.830039385234972 8.69860790803725 5.947432896678677 -7.814614089802934 -10.815650654492089 19.387090685467456 -1.9521660353155517 -3.165250747478952 -0.4582626844604257 -0.5325369896203476 0.8078292048607395 -0.24092932008264625 0.7017320345015233 -0.3211389529096034 -0.12079093497632347 1.287036771132715 -0.9417314350008429 -0.7052087075107656 3.631453633571223 1.0933936510868605 0.31814151372017274 -0.7901662823062336 -1.3119542617202735 0.46988569207623043 1.5643605941252157 0.38537528122798664 0.17435431898419482 0.6483787588519092 -0.4059688618645304 -0.691477572679807 3.221360751510607 0.2364992487148054 -0.9423558637013701 0.291121925693837 -0.5278863778475094 -0.06408392972252729 -0.8254548281790748 -0.3131172158945408 0.225815605553289 -0.4265356019920702 0.9635384147516953 0.18438949438095673 -16.277635112988104 9.209679374004391 -6.766341842311941 7.5976181260979825 -10.679798191900534 -18.20144327008682 0.7830613381046866 -3.558114050471388 2.5625597643154925 0.7661223088804963 -0.003043836451019159 -1.677106099867793 -0.8981634725543298 0.42131653705338706 0.5729590629846879 -0.5374196677424075 0.2407645417689197 -0.11610291724560885 -2.9436136702329767 2.499737391877008 0.3797822634322453 0.16333399552136438 0.9282727606847444 -1.390783289200389 0.09055528834626374 -0.2458432676645002 0.12407027955157585 -0.15659262549098824 1.0367713828674547 0.4479824493467631 -1.8126846078406056 0.19415100864366855 0.6873186278055039 1.8380090282923087 -0.15081820747584493 -0.19742688476348302 -0.571831014554578 0.15249699326864 -0.39253932257411017 -1.1115084867044978 0.9884149242042338 -1.3839382657132726 -9.437395319611678 -12.38030355936944 -8.280417623272172 -2.446957318509146 18.205637006237207 1.1194998080334129 -0.3763891801990564 -2.9018643523746857 -3.154695757333755 1.1232869344847733 -0.6143918442636315 -0.3135547482078183 10.117984396815721 -11.081631881150726 9.426881950931737 0.07922485828685884 17.894631172569845 -0.8449962661987457 3.1031410625916758 -2.3415019724884996 3.675940363182809
-2.8527976013720036 30.694478750228882 0.9753154590725899 -2.29017672941385 0.10084142650427733 0.5862857225507349 -0.5984526373400547 5.755545989023163 1.0529724848570192 2.022742166565882 -2.6467277585707367 1.4002735168870044 -1.4124876026702797 6.136939910295266 -0.017939705298450053 2.3238292848979145 -8.86984758071864 -1.5335679669126825 -0.7857477902434701 0.86867893328956 0.0018414830332589066 -0.3517891600057712 0.1797321591406543 -0.8689829300684785 -0.47883553440562143 0.5501144280885224 -0.12522543529495425 14.546226554619476 8.953901596192107 6.2046095826103445 -8.16291104879127 -11.343309234858607 20.28832902380876 -2.032669419637672 -3.2812815742123056 -0.49947807362469243 -0.6689645221235044 0.7921359914689889 -0.29282504403555026 0.7150405513775874 -0.4532454302673753 -0.33025496093489615 1.4187107587778076 -0.9856139063142939 -0.7559832132227297 3.83240761734993 1.2901731086222203 0.19105949427059152 -0.9576618907445457 -1.357859109358283 0.4612698353250825 1.638075517464284 0.2545480235965641 0.34459550338629324 0.6634315352872653 -0.40232084715665606 -0.7383107924364093 3.3911069606412907 0.38203723971455444 -0.8619402579822548 0.3182979143799955 -0.600627465621322 -0.23169917319302027 -0.8878837176883433 -0.4199749918508614 0.28507171211052795 -0.5386404039739886 0.9088890039853655 0.17199849068992223 -16.929154905084573 9.589469481482013 -7.2403070249525205 7.892932453920885 -11.169784010126202 -19.125098289284107 0.8092859561446563 -3.8237798077677345 2.651805577331818 0.7009832750137607 -0.023626611514852583 -1.9027060742145505 -0.9954448964074695 0.30941327901283694 0.5692384775168822 -0.6282885044602572 0.2956656556783351 -0.045100326058975994 -3.108858571257211 2.6177214392695736 0.422486340350884 0.05571251903847174 0.9243465758507506 -1.3766619798130935 0.05194663020656174 -0.08119579474923064 0.27101230131258564 -0.13912321606949057 1.065226377836551 0.45850280829843393 -1.9307830609017689 0.31775277990686385 0.7184616223781175 1.8677572768920647 -0.04662159061403766 -0.09971958794342257 -0.5984054129852464 0.08162044041653503 -0.42818237127313086 -1.0706829519314507 0.9924554079851194 -1.4471563622367951 -9.921017962851833 -12.937008372955084 -8.599624806585425 -2.5857572211709714 19.017340102296107 1.1137259503072248 -0.45769716614148975 -3.0402559377901914 -3.36366197989571 1.0711233924112107 -0.4849734198702299 -0.35322325960763584 10.673380375401662 -11.47773589546092 9.820500630157694 0.12240998329430738 18.767724008888823 -0.9255003442119538 3.169164232429958 -2.562289544956454 3.9101603564272396
